<?xml version="1.0" encoding="utf-8"?>
<svg width="32px" height="32px" viewBox="0 0 32 32" version="1.1" xmlns:xlink="http://www.w3.org/1999/xlink" xmlns="http://www.w3.org/2000/svg">
  <defs>
    <rect width="32" height="32" id="artboard_1" />
    <clipPath id="clip_1">
      <use xlink:href="#artboard_1" clip-rule="evenodd" />
    </clipPath>
  </defs>
  <g id="Artboard-Copy" clip-path="url(#clip_1)">
    <use xlink:href="#artboard_1" stroke="none" fill="#FFFFFF" fill-opacity="0" />
    <g id="Group" artboard="c76270b6-e509-4f04-9575-8abe18da93c3">
      <path d="M0 16C0 7.16344 7.16344 0 16 0C24.8366 0 32 7.16344 32 16C32 24.8366 24.8366 32 16 32C7.16344 32 0 24.8366 0 16Z" id="Oval" fill="#000000" fill-opacity="0.2" fill-rule="evenodd" stroke="none" />
      <path d="M2 16C2 8.26801 8.26801 2 16 2C23.732 2 30 8.26801 30 16C30 23.732 23.732 30 16 30C8.26801 30 2 23.732 2 16Z" id="Oval-Copy" fill="#000000" fill-opacity="0.18039216" fill-rule="evenodd" stroke="none" />
      <g id="SMD" transform="translate(4 4)">
        <g id="S" fill="#FF4E4C">
          <path d="M3.675 15.635Q2.405 15.635 1.58 15.04Q0.754999 14.445 0.684999 13.295L3.045 13.295Q3.095 13.905 3.585 13.905Q3.765 13.905 3.89 13.82Q4.015 13.735 4.015 13.555Q4.015 13.305 3.745 13.15Q3.475 12.995 2.905 12.795Q2.225 12.555 1.78 12.325Q1.335 12.095 1.015 11.655Q0.694999 11.215 0.704999 10.525Q0.704999 9.835 1.06 9.35Q1.415 8.865 2.03 8.615Q2.645 8.365 3.415 8.365Q4.715 8.365 5.48 8.965Q6.245 9.565 6.285 10.655L3.895 10.655Q3.885 10.355 3.745 10.225Q3.605 10.095 3.405 10.095Q3.265 10.095 3.175 10.19Q3.085 10.285 3.085 10.455Q3.085 10.695 3.35 10.85Q3.615 11.005 4.195 11.225Q4.865 11.475 5.3 11.705Q5.735 11.935 6.055 12.345Q6.375 12.755 6.375 13.375Q6.375 14.025 6.055 14.54Q5.735 15.055 5.125 15.345Q4.515 15.635 3.675 15.635Z" />
        </g>
        <g id="M" fill="#3D52D1">
          <path d="M15.665 8.485L15.665 15.565L13.455 15.565L13.455 12.035L12.365 15.565L10.465 15.565L9.375 12.035L9.375 15.565L7.155 15.565L7.155 8.485L9.875 8.485L11.435 12.735L12.955 8.485L15.665 8.485Z" />
        </g>
        <g id="D" fill="#03D4B2">
          <path d="M19.615 8.485Q20.725 8.485 21.56 8.935Q22.395 9.385 22.845 10.185Q23.295 10.985 23.295 12.005Q23.295 13.015 22.845 13.825Q22.395 14.635 21.56 15.1C21.0033 15.41 20.355 15.565 19.615 15.565L16.665 15.565L16.665 8.485L19.615 8.485ZM19.415 13.585Q20.165 13.585 20.605 13.175Q21.045 12.765 21.045 12.005Q21.045 11.245 20.605 10.835Q20.165 10.425 19.415 10.425L18.885 10.425L18.885 13.585L19.415 13.585Z" />
        </g>
      </g>
    </g>
  </g>
</svg>